<svg xmlns="http://www.w3.org/2000/svg" viewBox="0 0 1896 401" fill="none">
  <path fill="#3395FF" d="M122.63 105.7l-15.75 57.97 90.15-58.3-58.96 219.98 59.88.05L285.05.48"/>
  <path fill="#072654" d="M25.6 232.92L.8 325.4h122.73l50.22-188.13L25.6 232.92M122.63 105.7l-15.75 57.97 90.15-58.3-58.96 219.98 59.88.05L285.05.48 122.63 105.7"/>
  <path fill="#072654" d="M404.1 167.4h-80.66v51.9h67.25c4.28 0 8.2.94 11.7 2.78a24.73 24.73 0 0113.3 22.1c0 6.29-1.63 11.8-4.91 16.5a24.9 24.9 0 01-8.4 7.4c-3.5 1.82-7.4 2.7-11.7 2.7h-67.25v84.8h-52.9V115.5h133.57v51.9M524.9 215.22c-18.72 0-33.85 15.13-33.85 33.86 0 18.72 15.13 33.85 33.85 33.85 18.73 0 33.86-15.13 33.86-33.85 0-18.73-15.13-33.86-33.86-33.86m0 117.63c-46.34 0-83.88-37.54-83.88-83.88s37.54-83.87 83.88-83.87 83.88 37.53 83.88 83.87-37.54 83.88-83.88 83.88M674.25 355.58h-50.06l30.73-114.73-55.71-73.14h57.85l27.34 37.9 28.5-37.9h55.84l-55.43 72.58 24.6 91.95 36.37-132.38h51.5l-53.68 187.87h-52.83l-26.48-91.5-18.54 59.35M1064.81 167.4h-80.66v51.9h67.25c4.28 0 8.2.94 11.7 2.78a24.73 24.73 0 0113.3 22.1c0 6.29-1.63 11.8-4.9 16.5a24.9 24.9 0 01-8.4 7.4c-3.5 1.82-7.4 2.7-11.7 2.7h-67.25v84.8h-52.9V115.5h133.56v51.9M1165.16 270.13h31.47a34 34 0 0021.95-7.42 24.45 24.45 0 009.18-20.07 24.48 24.48 0 00-9.18-20.07 34 34 0 00-21.95-7.41h-31.47v54.97m31.47 85.35h-84.37V163.33h84.37c19.1 0 36.27 4.41 51.3 13.24a92.43 92.43 0 0135.08 35.56c8.44 14.98 12.66 31.81 12.66 50.5 0 18.63-4.22 35.45-12.66 50.5a93.52 93.52 0 01-35.08 35.74c-15.03 8.81-32.2 13.23-51.3 13.23v-6.62M1395.11 218.4h-34.6l17.29-61.69 17.31 61.69m24.69 92.53l-11.46-40.84h-63.47l-11.46 40.84h-55.1L1348 123.21h55.1l69.73 243.38h-53.03zM1576.34 310.93l80.73-.04-29.21-104.17-51.52 104.21m90.02 44.7h-133.23l-22.23 45.06h-58.53l124.56-243.37h54.4l46.4 170.31 52.52-170.31h57.65l-121.54 243.37z"/>
</svg>
